<?xml version="1.0" ?><!DOCTYPE svg  PUBLIC '-//W3C//DTD SVG 1.1//EN'  'http://www.w3.org/Graphics/SVG/1.1/DTD/svg11.dtd'><svg height="100%" style="fill-rule:evenodd;clip-rule:evenodd;stroke-linejoin:round;stroke-miterlimit:2;" version="1.1" viewBox="0 0 24 24" width="100%" xml:space="preserve" xmlns="http://www.w3.org/2000/svg" xmlns:serif="http://www.serif.com/" xmlns:xlink="http://www.w3.org/1999/xlink"><g id="Icon"><path d="M5.75,5.25l0,-1.25c0,-0.414 0.336,-0.75 0.75,-0.75l11,0c0.414,0 0.75,0.336 0.75,0.75l0,1.25l1.75,-0c0.464,0 0.909,0.184 1.237,0.513c0.329,0.328 0.513,0.773 0.513,1.237c-0,0.294 -0,0.636 -0,1c0,1.26 -0.5,2.468 -1.391,3.359c-0.809,0.808 -1.879,1.295 -3.012,1.378c-0.973,1.604 -2.647,2.735 -4.597,2.968l0,1.545l1.25,-0c0.729,0 1.429,0.29 1.945,0.805c0.515,0.516 0.805,1.216 0.805,1.945l-0,0c-0,0.967 -0.784,1.75 -1.75,1.75c-1.537,-0 -4.463,-0 -6,-0c-0.966,-0 -1.75,-0.783 -1.75,-1.75l0,0c-0,-0.729 0.29,-1.429 0.805,-1.945c0.516,-0.515 1.216,-0.805 1.945,-0.805l1.25,-0l0,-1.545c-1.95,-0.233 -3.624,-1.364 -4.597,-2.968c-1.133,-0.083 -2.203,-0.57 -3.012,-1.378c-0.891,-0.891 -1.391,-2.099 -1.391,-3.359c0,-0.364 0,-0.706 0,-1c-0,-0.464 0.184,-0.909 0.513,-1.237c0.328,-0.329 0.773,-0.513 1.237,-0.513l1.75,-0Zm8.25,13.5l-4,-0c-0.332,0 -0.649,0.132 -0.884,0.366c-0.234,0.235 -0.366,0.552 -0.366,0.884c0,0.138 0.112,0.25 0.25,0.25c1.537,-0 4.463,-0 6,-0c0.138,-0 0.25,-0.112 0.25,-0.25c0,-0.332 -0.132,-0.649 -0.366,-0.884c-0.235,-0.234 -0.552,-0.366 -0.884,-0.366Zm-2,-4.5c2.623,-0 4.75,-2.127 4.75,-4.75l0,-4.75l-9.5,-0l0,4.75c0,2.623 2.127,4.75 4.75,4.75c0,0 0,0 0,0Zm-6.25,-7.5l-1.75,-0c-0.066,0 -0.13,0.026 -0.177,0.073c-0.047,0.047 -0.073,0.111 -0.073,0.177c0,0.294 0,0.636 -0,1c-0,0.862 0.342,1.689 0.952,2.298c0.355,0.355 0.783,0.619 1.248,0.778c-0.13,-0.504 -0.2,-1.032 -0.2,-1.576l0,-2.75Zm12.5,-0l0,2.75c0,0.544 -0.07,1.072 -0.2,1.576c0.465,-0.159 0.893,-0.423 1.248,-0.778c0.61,-0.609 0.952,-1.436 0.952,-2.298c-0,-0.364 -0,-0.706 -0,-1c0,-0.066 -0.026,-0.13 -0.073,-0.177c-0.047,-0.047 -0.111,-0.073 -0.177,-0.073l-1.75,-0Z"/></g></svg>